<?xml version="1.0" encoding="UTF-8"?>
<svg xmlns="http://www.w3.org/2000/svg" width="89" height="33" viewBox="0 0 89 33" fill="none">
  <path d="M75.0714 7.16541C77.6414 8.32541 80.9214 8.06541 83.8914 10.3954C86.8514 12.7254 89.3714 15.3954 88.7114 17.4754C88.0514 19.5554 87.2114 26.3554 82.0614 29.3354C76.9114 32.3154 72.6514 31.9454 69.9214 30.8554C67.1914 29.7654 58.2814 25.2954 51.4014 25.3954C44.5014 25.5054 39.2014 26.1454 36.9314 24.8654C34.6614 23.5854 29.8714 19.6454 25.5114 20.2254C21.1614 20.8054 16.0714 24.8854 15.1614 27.9154C14.2514 30.9554 5.46141 33.5254 3.35141 32.3954C1.25141 31.2754 -0.57859 27.1454 0.17141 23.9654C0.92141 20.7854 0.941409 18.4354 2.55141 16.6054C4.06141 14.8954 11.5914 13.0754 16.3214 10.9054C21.0514 8.73541 20.2414 10.8254 25.9914 12.5154C31.7414 14.2054 42.7714 14.9354 47.1714 12.6354C51.5814 10.3254 57.5614 0.385411 60.2114 0.0754114C62.8514 -0.244589 66.5114 0.475411 67.3814 1.82541C68.2514 3.18541 71.6914 5.64541 75.0814 7.15541L75.0714 7.16541Z" fill="#5FA224"></path>
  <path d="M66.1524 5.22541C69.5224 5.43541 71.5924 7.90541 72.8824 9.83541C74.1824 11.7654 77.8524 13.0454 78.8024 13.4054C79.7424 13.7654 82.2824 15.7454 80.7824 21.0754C79.7424 24.7454 79.3124 25.7654 77.4724 25.7954C75.6224 25.8254 73.5224 25.7954 72.3024 23.5154C71.0724 21.2454 70.6424 21.0154 69.5424 20.8354C68.4424 20.6554 67.1524 20.0554 66.7624 19.1654C66.3724 18.2654 66.0824 17.6954 63.3724 17.1054C60.6524 16.5154 57.6024 14.4454 57.7724 11.8354C57.9524 9.22541 62.1224 4.94541 66.1624 5.20541L66.1524 5.22541Z" fill="#A9BA00"></path>
  <path d="M17.6619 11.4153C18.2719 11.1953 18.5319 11.2653 19.0819 12.1153C19.6219 12.9753 20.1319 13.2353 19.2919 14.0853C18.4519 14.9253 14.3519 17.2453 13.5219 18.1853C12.6919 19.1253 12.4719 18.8453 12.0119 17.7853C11.5519 16.7253 10.8819 15.4753 12.2119 14.6053C13.5419 13.7353 16.9719 11.6453 17.6519 11.4053L17.6619 11.4153Z" fill="#277C33"></path>
  <path d="M9.90227 15.5454C10.5823 16.0554 10.9123 17.4654 10.5823 18.4654C10.2423 19.4754 8.16227 20.9854 7.07227 20.8554C5.97227 20.7254 4.97227 18.8054 5.30227 17.7954C5.63227 16.7854 9.18227 14.9954 9.90227 15.5354V15.5454Z" fill="#277C33"></path>
  <path d="M14.762 19.0054C15.292 19.9154 15.362 20.7454 14.522 21.4954C13.672 22.2354 12.602 24.1854 12.322 25.9754C12.042 27.7654 11.812 28.9754 9.442 30.5954C7.072 32.2254 5.242 31.4454 4.452 29.8154C3.662 28.1854 4.252 26.5654 6.242 25.0554C8.222 23.5554 12.512 19.4354 13.182 19.0054C13.852 18.5654 14.542 18.6254 14.762 19.0054Z" fill="#277C33"></path>
  <path d="M64.7215 3.2955C64.7715 3.9955 63.8315 4.3555 63.1115 4.2055C62.4015 4.0455 61.7015 4.2355 61.3615 4.5655C61.0315 4.8955 60.2115 6.3055 59.5015 6.3455C58.8015 6.3955 57.7415 6.5055 57.5315 5.5555C57.3215 4.6055 57.9515 3.4055 59.4515 3.1155C60.9515 2.8255 63.6615 2.5455 64.2815 2.7255C64.7315 2.8455 64.7115 3.1555 64.7215 3.3055V3.2955Z" fill="#EFE5C0"></path>
  <path d="M65.1312 6.94531C67.2212 7.09531 70.2012 9.54531 69.1212 12.9053C68.0412 16.2653 65.7512 15.8653 64.0812 15.5853C62.4212 15.2953 59.0912 14.3453 59.1412 12.1853C59.1912 10.0153 62.7712 6.78531 65.1212 6.95531L65.1312 6.94531Z" fill="#277C33"></path>
  <path d="M77.7003 14.7454C78.5703 15.7354 80.0803 17.8154 79.3103 19.9454C78.5403 22.0754 79.0603 23.7954 77.7203 24.2154C76.3803 24.6354 74.9203 24.6954 74.1203 23.4854C73.3303 22.2754 71.7703 20.7954 70.7703 20.4454C69.7703 20.0954 67.6903 18.1354 70.0603 16.1454C72.4403 14.1454 73.8003 13.3754 74.6003 13.2654C75.3903 13.1654 76.6003 13.4754 77.7003 14.7454Z" fill="#277C33"></path>
  <path d="M70.3131 27.7054C70.1031 28.3254 68.8731 28.2354 68.1231 27.7054C67.3731 27.1754 67.0931 27.6854 66.7131 27.7854C66.3331 27.8854 65.4831 27.3254 64.7531 26.5354C64.0331 25.7654 64.1131 24.9054 64.6831 24.5054C65.2531 24.1154 65.9831 23.8654 66.7031 24.7154C67.4231 25.5754 67.6431 25.7954 68.6431 25.7554C69.6431 25.7154 70.6031 26.7654 70.3031 27.6854L70.3131 27.7054Z" fill="#EFE5C0"></path>
  <path d="M68.8826 22.0253C69.5926 21.5353 70.4226 21.4653 70.8626 21.9253C71.3026 22.3853 71.5626 22.8653 71.7026 23.4453C71.8426 24.0353 72.2526 24.0853 72.6626 24.3353C73.0626 24.5953 74.5826 25.8653 73.6926 26.8953C72.8026 27.9253 71.7526 27.6353 71.2526 26.9453C70.7426 26.2553 70.9426 26.0053 70.6526 25.4653C70.3626 24.9153 68.9426 24.7453 68.5626 24.1053C68.1926 23.4553 68.2826 22.4453 68.9026 22.0253H68.8826Z" fill="#EFE5C0"></path>
  <path d="M84.4116 12.0954C85.8816 13.3954 86.2416 15.0954 85.9016 15.4754C85.4216 16.0254 83.8316 16.1154 82.4916 14.9454C80.7316 13.3954 80.7416 12.0354 81.5416 11.2254C82.1116 10.6454 82.8016 10.6854 84.4016 12.1054L84.4116 12.0954Z" fill="#EFE5C0"></path>
  <path d="M82.9501 18.0854C83.7501 18.1154 84.3901 20.9754 84.2101 21.9154C84.0401 22.8554 82.8001 23.5954 81.9401 23.4454C81.0901 23.2854 80.0701 23.1454 80.1801 22.0054C80.2901 20.8654 80.5201 20.8554 80.6601 20.2254C80.8001 19.6054 81.1101 19.0654 81.7201 18.6254C82.2601 18.2254 82.4101 18.0854 82.9401 18.0354" fill="#EFE5C0"></path>
  <path d="M52.5099 11.2554C54.1099 10.9854 55.0999 12.1854 55.8099 12.8954C56.5299 13.6054 57.6099 13.6254 57.8299 14.3654C58.0399 15.1054 58.6999 16.4154 59.9999 17.0054C61.2999 17.5954 63.6799 18.1154 63.3999 19.0554C63.1199 19.9954 62.4999 20.8654 61.4399 21.3554C60.3799 21.8354 60.6799 22.4854 59.4299 22.6454C58.1799 22.8054 58.2099 21.8854 55.9799 21.0954C53.7499 20.3154 51.4499 20.0054 51.2099 18.7654C50.9699 17.5154 51.7799 16.5654 51.6399 15.6554C51.4999 14.7354 50.4899 13.6654 50.6499 12.8554C50.7299 12.4254 51.5099 11.4354 52.5199 11.2654L52.5099 11.2554Z" fill="#87B9D6"></path>
  <path d="M6.80859 29.0955L64.5286 11.6055" stroke="#FFF5E0" stroke-width="0.5"></path>
  <path d="M7.12841 29.9855C6.62841 30.1355 6.10841 29.8555 5.95841 29.3555C5.80841 28.8555 6.08841 28.3355 6.58841 28.1855C7.08841 28.0355 7.60841 28.3155 7.75841 28.8155C7.90841 29.3155 7.62841 29.8355 7.12841 29.9855Z" fill="#FFF5E0"></path>
  <path d="M64.7573 12.5255C65.2573 12.3755 65.5373 11.8455 65.3873 11.3555C65.2373 10.8555 64.7073 10.5755 64.2173 10.7255C63.7173 10.8755 63.4373 11.4055 63.5873 11.8955C63.7373 12.3955 64.2673 12.6755 64.7573 12.5255Z" fill="#FFF5E0"></path>
  <path d="M6.88672 29.0754L74.8267 18.2954" stroke="#FFF5E0" stroke-width="0.5"></path>
  <path d="M74.9273 19.2254C75.4373 19.1454 75.7873 18.6654 75.7073 18.1454C75.6273 17.6254 75.1473 17.2854 74.6273 17.3654C74.1173 17.4454 73.7673 17.9254 73.8473 18.4454C73.9273 18.9554 74.4073 19.3054 74.9273 19.2254Z" fill="#FFF5E0"></path>
</svg>
