<?xml version="1.0" encoding="UTF-8"?>
<svg xmlns="http://www.w3.org/2000/svg" width="176" height="52" viewBox="0 0 176 52" fill="none">
  <path d="M174.439 7.38632C175.559 9.92632 174.199 12.7163 174.729 14.6763C175.259 16.6263 177.009 19.2963 174.749 21.9263C172.489 24.5463 162.559 33.8463 161.919 36.4363C161.279 39.0263 148.229 45.7263 145.309 43.7063C142.389 41.6663 135.959 41.5463 128.529 42.8863C121.089 44.2263 114.209 47.2563 109.449 48.7163C104.679 50.1763 102.939 52.8763 97.5093 49.6763C92.0693 46.4663 76.1393 48.9963 70.0993 44.3663C64.0593 39.7363 42.4493 29.6363 29.9493 27.0163C17.4493 24.4063 6.78926 20.1863 3.59926 16.2363C0.409259 12.2663 -1.31074 5.58632 1.20926 2.99632C3.72926 0.406322 8.27926 -1.35368 14.0593 1.36632C19.8393 4.08632 24.1893 5.51632 29.3693 4.92632C34.5493 4.32632 39.4693 3.70632 43.7193 5.92632C47.9593 8.14632 59.2493 13.5363 69.3893 13.9363C79.5293 14.3263 90.0393 15.8463 97.5493 17.7363C105.059 19.6263 114.979 19.7263 125.079 16.6163C135.179 13.5263 143.309 9.32632 148.869 6.10632C154.439 2.88632 163.899 0.49632 167.729 1.85632C171.559 3.22632 173.429 5.09632 174.439 7.38632Z" fill="#5FA224"></path>
  <path d="M165.15 6.62623C168.12 7.27623 167.83 8.88623 168.64 9.80623C169.44 10.7262 171.87 12.0062 171.4 13.8862C170.93 15.7562 168.52 17.5462 167.01 18.8062C165.49 20.0562 167.89 23.8162 166.28 26.6562C164.67 29.4962 161.93 29.9062 159.58 29.5062C157.23 29.0962 154.27 27.8062 152.64 28.4362C151 29.0662 148.97 30.1762 146.62 30.7062C144.26 31.2362 135.79 32.2062 127.93 34.8062C120.07 37.4162 106.31 43.5262 98.3203 42.7762C90.3303 42.0462 81.9603 38.1262 75.3403 35.0962C68.7203 32.0662 60.4403 31.9062 59.8903 27.0462C59.3403 22.1862 62.1403 21.5562 64.4303 21.4662C66.7203 21.3762 67.8903 19.0662 70.2703 19.8162C72.6503 20.5762 83.0003 23.7362 87.9903 27.9862C92.9903 32.2362 95.8103 31.4062 98.2803 31.5462C100.75 31.6962 118.9 26.8462 127.57 22.9062C136.24 18.9662 136.76 18.2162 140.28 16.8562C143.8 15.4962 149.91 14.9362 153.13 14.1462C156.36 13.3662 154.8 11.2062 157.28 10.3662C159.77 9.53623 159.75 9.24623 160.56 8.36623C161.37 7.48623 162.87 6.09623 165.15 6.60623V6.62623Z" fill="#A9BA00"></path>
  <path d="M8.58033 5.12627C10.1103 5.90627 9.65033 7.08628 9.47033 7.90628C9.29033 8.71628 8.59033 11.7763 8.13033 12.7363C7.67033 13.7063 6.94033 13.8563 6.11033 13.3463C5.28033 12.8363 4.36033 12.5063 4.03033 12.1463C3.69033 11.7763 3.51033 11.2963 3.90033 10.3263C4.30033 9.35628 5.39033 5.82627 6.38033 5.20627C7.37033 4.57627 8.40033 5.04628 8.58033 5.13628V5.12627Z" fill="#277C33"></path>
  <path d="M20.4309 8.77641C21.2309 9.01641 21.5609 9.44642 21.2409 10.7564C20.9209 12.0664 20.2809 15.6464 19.1809 16.1364C18.0809 16.6164 16.3109 15.9064 14.7909 15.3064C13.2609 14.7064 10.7809 14.0864 10.8009 13.5064C10.8209 12.9164 11.7809 8.48641 12.1509 7.69641C12.5209 6.91641 13.1409 6.23642 14.7809 6.91642C16.4209 7.60642 19.6409 8.52641 20.4409 8.77641H20.4309Z" fill="#277C33"></path>
  <path d="M29.0877 11.2564C29.7977 11.5464 30.5477 11.4064 30.4477 12.5564C30.3477 13.7064 29.5277 17.5764 28.8977 18.3964C28.2677 19.2064 28.1977 19.2564 26.6477 18.7764C25.1077 18.2964 22.7977 17.3164 22.0977 17.2764C21.3977 17.2364 20.9277 16.4664 21.0677 15.5164C21.2077 14.5664 22.4477 11.2664 22.4777 10.6964C22.4877 10.1164 23.2177 9.57637 24.1477 9.83637C25.0777 10.0964 28.6177 11.0664 29.0977 11.2564H29.0877Z" fill="#277C33"></path>
  <path d="M109.088 22.4463C110.048 22.4863 111.228 20.6263 111.838 21.2263C112.458 21.8363 112.208 22.2563 111.828 23.0963C111.448 23.9463 112.408 24.9263 112.138 25.3963C111.878 25.8763 111.178 26.2363 110.218 25.7763C109.248 25.3163 109.008 26.5563 108.308 26.4663C107.618 26.3663 106.928 26.2663 106.778 25.4763C106.628 24.6763 107.048 24.4763 107.138 23.8463C107.228 23.2163 106.568 22.4063 107.078 22.0263C107.588 21.6463 108.438 22.4163 109.078 22.4463H109.088Z" fill="#EFE5C0"></path>
  <path d="M101.109 25.9262C101.499 26.9162 100.969 28.6762 100.239 28.8262C99.5095 28.9762 98.9095 28.6962 98.1395 28.1362C97.3795 27.5762 96.7695 29.1662 94.9895 28.5162C93.2095 27.8762 93.8795 26.8062 93.2295 25.9362C92.5895 25.0662 91.1595 25.1162 90.7395 24.0362C90.3195 22.9362 91.4795 22.9762 91.6495 22.6162C91.8295 22.2562 91.4395 21.8762 91.7795 21.2862C92.1195 20.6862 93.6995 20.0162 94.4395 20.7062C95.1795 21.3862 95.3295 23.4662 96.5495 23.9662C97.7695 24.4662 100.199 23.6562 101.099 25.9162L101.109 25.9262Z" fill="#EFE5C0"></path>
  <path d="M172.558 18.3364C173.798 18.8064 173.908 20.6064 173.598 21.2964C173.298 21.9864 172.088 22.4864 171.498 23.3364C170.898 24.1864 169.518 24.5264 169.118 23.5964C168.718 22.6664 168.058 22.1064 168.588 21.2464C169.118 20.3864 169.478 20.6464 170.148 20.2064C170.818 19.7664 170.698 18.7464 171.138 18.4664C171.578 18.1964 171.988 18.1264 172.568 18.3464L172.558 18.3364Z" fill="#EFE5C0"></path>
  <path d="M171.368 7.51625C171.948 7.98625 173.108 8.50625 173.308 9.40625C173.518 10.3062 173.078 10.5162 172.038 10.3562C170.988 10.2062 170.108 9.80625 169.488 8.98625C168.868 8.15625 168.268 7.67625 168.598 6.78625C168.928 5.88625 169.938 5.36625 170.578 6.46625C171.228 7.56625 171.068 7.26625 171.368 7.51625Z" fill="#EFE5C0"></path>
  <path d="M167.637 10.1864C168.197 11.1064 170.247 11.5064 170.467 12.3464C170.687 13.1864 170.487 15.8964 169.357 16.3364C168.227 16.7764 166.497 16.6664 164.817 15.8164C163.127 14.9664 161.477 16.2064 159.677 15.7364C157.867 15.2764 156.347 14.2464 156.597 12.9564C156.857 11.6564 157.947 10.5464 159.837 10.4764C161.727 10.4164 161.207 8.86642 162.407 8.44642C163.607 8.00642 164.227 7.42642 165.527 7.68642C166.827 7.93642 167.097 9.31642 167.647 10.1964L167.637 10.1864Z" fill="#277C33"></path>
  <path d="M160.14 7.03624C160.33 7.74624 159.82 9.26624 158.7 9.17624C157.58 9.07624 157.36 9.64624 157.04 10.0062C156.72 10.3662 156.24 10.8962 155.49 10.5862C154.73 10.2762 154.42 9.63624 154.58 8.98624C154.74 8.33624 154.19 7.99624 154.85 7.61624C155.51 7.23624 156.15 7.39624 156.77 7.29624C157.39 7.18624 158.24 6.36624 158.89 6.52624C159.53 6.68624 160.02 6.55624 160.15 7.03624H160.14Z" fill="#EFE5C0"></path>
  <path d="M152.17 8.42635C152.99 8.81635 153.19 9.71635 152.88 10.0063C152.57 10.2963 152.25 10.6563 152.35 10.9263C152.44 11.2063 153.4 11.9563 153.05 12.5663C152.69 13.1963 151.82 13.6563 151.1 13.0863C150.38 12.5163 150.47 11.9263 149.92 11.9763C149.38 12.0363 148.91 12.9663 148.05 12.8463C147.2 12.7263 147.1 12.5063 147.4 10.8763C147.7 9.24635 147.93 8.60635 148.51 8.76635C149.09 8.91635 149.18 9.19635 149.87 9.09635C150.55 8.98635 151.36 8.04635 152.17 8.41635V8.42635Z" fill="#EFE5C0"></path>
  <path d="M160.638 20.2263C162.248 20.6363 166.458 21.1363 165.278 25.5863C164.098 30.0263 159.528 28.3663 158.298 28.0563C157.068 27.7463 151.438 26.9263 152.918 23.5963C154.408 20.2663 158.118 19.5963 160.638 20.2263Z" fill="#277C33"></path>
  <path d="M155.308 30.2363C156.298 30.6363 158.628 30.8463 158.188 32.0563C157.738 33.2663 156.318 34.3363 155.188 33.8363C154.058 33.3363 153.818 34.0363 152.918 33.8363C152.008 33.6463 151.708 32.9263 151.178 32.9163C150.638 32.9063 149.528 33.7263 148.508 33.3363C147.678 33.0163 147.248 32.2863 147.908 31.9163C148.568 31.5363 149.818 31.7163 150.448 31.0063C151.088 30.2963 151.588 29.0963 153.008 29.0363C154.418 28.9763 154.048 29.7263 155.308 30.2463V30.2363Z" fill="#EFE5C0"></path>
  <path d="M7.28906 9.07617L120.809 31.9762L160.569 24.0362" stroke="#FFF5E0" stroke-width="0.5"></path>
  <path d="M7.14848 10.0063C6.63848 9.90628 6.30848 9.40628 6.40848 8.89628C6.50848 8.38628 7.00848 8.05628 7.51848 8.15628C8.02848 8.25628 8.35848 8.75628 8.25848 9.26628C8.15848 9.77628 7.65848 10.1063 7.14848 10.0063Z" fill="#FFF5E0"></path>
  <path d="M160.71 24.9763C161.22 24.8763 161.55 24.3763 161.45 23.8663C161.35 23.3563 160.85 23.0263 160.34 23.1263C159.83 23.2263 159.5 23.7263 159.6 24.2363C159.7 24.7463 160.2 25.0763 160.71 24.9763Z" fill="#FFF5E0"></path>
  <path d="M120.887 31.9362L164.957 11.8962" stroke="#FFF5E0" stroke-width="0.5"></path>
  <path d="M121.318 32.7763C120.848 32.9863 120.288 32.7763 120.078 32.3063C119.868 31.8363 120.078 31.2763 120.548 31.0663C121.018 30.8563 121.578 31.0663 121.788 31.5363C121.998 32.0063 121.788 32.5663 121.318 32.7763Z" fill="#FFF5E0"></path>
  <path d="M165.298 12.7763C165.768 12.5663 165.978 12.0063 165.768 11.5363C165.558 11.0663 164.998 10.8563 164.528 11.0663C164.058 11.2763 163.848 11.8363 164.058 12.3063C164.268 12.7763 164.828 12.9863 165.298 12.7763Z" fill="#FFF5E0"></path>
</svg>
