<svg id="_8.svg" data-name="8.svg" xmlns="http://www.w3.org/2000/svg" width="59" height="59" viewBox="0 0 59 59">
  <defs>
    <style>
      .cls-1 {
        fill-opacity: 0;
      }

      .cls-2 {
        fill: #fff;
        fill-rule: evenodd;
      }
    </style>
  </defs>
  <circle id="Ellipse_1_copy" data-name="Ellipse 1 copy" class="cls-1" cx="29.5" cy="29.5" r="29.5"/>
  <path id="_8" data-name="8" class="cls-2" d="M18.828,32.059a9.855,9.855,0,0,0-1.383,5.121,9.6,9.6,0,0,0,3.68,7.969,12.2,12.2,0,0,0,7.8,2.461A11.034,11.034,0,0,0,37,44.633,10.354,10.354,0,0,0,40.039,36.9a8.871,8.871,0,0,0-1.488-5.086A9.209,9.209,0,0,0,34.2,28.461,7.864,7.864,0,0,0,37.7,25.613a7.493,7.493,0,0,0,1.242-4.254,8.284,8.284,0,0,0-2.707-6.352Q33.523,12.5,28.625,12.5q-4.946,0-7.629,2.508a8.318,8.318,0,0,0-2.684,6.352,7.374,7.374,0,0,0,4.875,7.1A8.906,8.906,0,0,0,18.828,32.059Zm6.844-13.207A4.086,4.086,0,0,1,28.7,17.727,3.828,3.828,0,0,1,32.75,21.8a4.14,4.14,0,0,1-1.125,3.082,4.078,4.078,0,0,1-3,1.113,4.029,4.029,0,0,1-2.965-1.1,4.124,4.124,0,0,1-1.113-3.07A4.024,4.024,0,0,1,25.672,18.852ZM25.121,32.938a4.12,4.12,0,0,1,3.6-1.664,4.5,4.5,0,0,1,3.445,1.465,5.477,5.477,0,0,1,1.359,3.879,6.067,6.067,0,0,1-1.336,4.231,4.371,4.371,0,0,1-3.375,1.465,4.522,4.522,0,0,1-3.48-1.523A6.625,6.625,0,0,1,25.121,32.938Z"/>
</svg>
